<svg xmlns="http://www.w3.org/2000/svg" version="1.1" xmlns:xlink="http://www.w3.org/1999/xlink" xmlns:svgjs="http://svgjs.dev/svgjs" width="2000" height="287" viewBox="0 0 2000 287"><g transform="matrix(1,0,0,1,-1.2121212121212466,0.8674291456362369)"><svg viewBox="0 0 396 57" data-background-color="#ffffff" preserveAspectRatio="xMidYMid meet" height="287" width="2000" xmlns="http://www.w3.org/2000/svg" xmlns:xlink="http://www.w3.org/1999/xlink"><g id="tight-bounds" transform="matrix(1,0,0,1,0.2400000000000091,-0.17227686864552538)"><svg viewBox="0 0 395.52 57.344553737291065" height="57.344553737291065" width="395.52"><g><svg viewBox="0 0 470.42767363091053 68.205059187997" height="57.344553737291065" width="395.52"><g transform="matrix(1,0,0,1,74.90767363091057,17.613698814875146)"><svg viewBox="0 0 395.52 32.9776615582467" height="32.9776615582467" width="395.52"><g id="textblocktransform"><svg viewBox="0 0 395.52 32.9776615582467" height="32.9776615582467" width="395.52" id="textblock"><g><svg viewBox="0 0 395.52 32.9776615582467" height="32.9776615582467" width="395.52"><g transform="matrix(1,0,0,1,0,0)"><svg width="395.52" viewBox="1.1 -37.5 455.57 37.99" height="32.9776615582467" data-palette-color="#000000"><path d="M29.3-35.55L29.3-30.57 18.21-30.57 18.21 0 12.08 0 12.08-30.57 1.1-30.57 1.1-35.55 29.3-35.55ZM51.12 0L45.07 0Q44.68-0.76 44.38-2.47L44.38-2.47Q41.55 0.49 37.45 0.49L37.45 0.49Q33.47 0.49 30.95-1.78 28.44-4.05 28.44-7.4L28.44-7.4Q28.44-11.62 31.58-13.88 34.71-16.14 40.55-16.14L40.55-16.14 44.19-16.14 44.19-17.87Q44.19-19.92 43.04-21.15 41.89-22.39 39.55-22.39L39.55-22.39Q37.52-22.39 36.23-21.37 34.93-20.36 34.93-18.8L34.93-18.8 29-18.8Q29-20.97 30.44-22.86 31.88-24.76 34.36-25.83 36.84-26.9 39.89-26.9L39.89-26.9Q44.53-26.9 47.29-24.57 50.05-22.24 50.12-18.02L50.12-18.02 50.12-6.1Q50.12-2.54 51.12-0.42L51.12-0.42 51.12 0ZM38.55-4.27L38.55-4.27Q40.31-4.27 41.86-5.13 43.41-5.98 44.19-7.42L44.19-7.42 44.19-12.4 40.99-12.4Q37.69-12.4 36.03-11.25 34.37-10.11 34.37-8.01L34.37-8.01Q34.37-6.3 35.51-5.29 36.64-4.27 38.55-4.27ZM62.64-37.5L62.64 0 56.71 0 56.71-37.5 62.64-37.5ZM85.51 0L77.68-11.33 75.04-8.62 75.04 0 69.11 0 69.11-37.5 75.04-37.5 75.04-15.87 76.9-18.19 84.2-26.42 91.33-26.42 81.51-15.41 92.38 0 85.51 0ZM129.38-35.55L136.1-8.79 141.56-35.55 147.69-35.55 139.49 0 133.58 0 126.82-25.95 119.91 0 113.98 0 105.77-35.55 111.9-35.55 117.42-8.84 124.21-35.55 129.38-35.55ZM157.94-26.42L157.94 0 152.01 0 152.01-26.42 157.94-26.42ZM151.65-33.28L151.65-33.28Q151.65-34.64 152.51-35.55 153.38-36.45 154.99-36.45 156.6-36.45 157.48-35.55 158.36-34.64 158.36-33.28L158.36-33.28Q158.36-31.93 157.48-31.04 156.6-30.15 154.99-30.15 153.38-30.15 152.51-31.04 151.65-31.93 151.65-33.28ZM165.9-32.84L171.83-32.84 171.83-26.42 176.5-26.42 176.5-22.02 171.83-22.02 171.83-7.28Q171.83-5.76 172.43-5.09 173.03-4.42 174.57-4.42L174.57-4.42Q175.59-4.42 176.64-4.66L176.64-4.66 176.64-0.07Q174.62 0.49 172.74 0.49L172.74 0.49Q165.9 0.49 165.9-7.06L165.9-7.06 165.9-22.02 161.55-22.02 161.55-26.42 165.9-26.42 165.9-32.84ZM186.87-37.5L186.87-23.54Q189.77-26.9 194.22-26.9L194.22-26.9Q202.67-26.9 202.79-17.26L202.79-17.26 202.79 0 196.86 0 196.86-17.04Q196.86-19.78 195.67-20.91 194.49-22.05 192.19-22.05L192.19-22.05Q188.63-22.05 186.87-18.87L186.87-18.87 186.87 0 180.94 0 180.94-37.5 186.87-37.5ZM225.22-35.55L233.4-18.7 241.58-35.55 248.41-35.55 236.5-13.09 236.5 0 230.3 0 230.3-13.09 218.36-35.55 225.22-35.55ZM249-13.16L249-13.45Q249-17.33 250.53-20.45 252.07-23.56 254.86-25.23 257.64-26.9 261.25-26.9L261.25-26.9Q266.6-26.9 269.93-23.46 273.26-20.02 273.53-14.33L273.53-14.33 273.56-12.94Q273.56-9.03 272.06-5.96 270.55-2.88 267.76-1.2 264.96 0.49 261.3 0.49L261.3 0.49Q255.71 0.49 252.35-3.23 249-6.96 249-13.16L249-13.16ZM254.93-12.94L254.93-12.94Q254.93-8.86 256.61-6.56 258.3-4.25 261.3-4.25 264.3-4.25 265.98-6.59 267.65-8.94 267.65-13.45L267.65-13.45Q267.65-17.46 265.93-19.8 264.21-22.14 261.25-22.14L261.25-22.14Q258.35-22.14 256.64-19.84 254.93-17.53 254.93-12.94ZM294.72 0L294.57-2.59Q291.96 0.49 287.15 0.49L287.15 0.49Q282.86 0.49 280.65-2.03 278.44-4.54 278.44-9.3L278.44-9.3 278.44-26.42 284.37-26.42 284.37-9.38Q284.37-4.35 288.54-4.35L288.54-4.35Q292.87-4.35 294.38-7.45L294.38-7.45 294.38-26.42 300.31-26.42 300.31 0 294.72 0ZM320.21-26.56L320.18-21Q319.01-21.19 317.77-21.19L317.77-21.19Q313.69-21.19 312.27-18.07L312.27-18.07 312.27 0 306.34 0 306.34-26.42 312-26.42 312.15-23.46Q314.3-26.9 318.11-26.9L318.11-26.9Q319.38-26.9 320.21-26.56L320.21-26.56ZM347.18 0L336.95 0 336.95-35.55 347.45-35.55Q352.16-35.55 355.81-33.45 359.46-31.35 361.46-27.49 363.46-23.63 363.46-18.65L363.46-18.65 363.46-16.87Q363.46-11.82 361.45-7.98 359.44-4.15 355.71-2.08 351.99 0 347.18 0L347.18 0ZM347.45-30.57L343.13-30.57 343.13-4.93 347.15-4.93Q352.01-4.93 354.61-7.97 357.21-11.01 357.26-16.7L357.26-16.7 357.26-18.68Q357.26-24.46 354.75-27.51 352.23-30.57 347.45-30.57L347.45-30.57ZM367.93-13.16L367.93-13.45Q367.93-17.33 369.47-20.45 371-23.56 373.79-25.23 376.57-26.9 380.18-26.9L380.18-26.9Q385.53-26.9 388.86-23.46 392.2-20.02 392.46-14.33L392.46-14.33 392.49-12.94Q392.49-9.03 390.99-5.96 389.49-2.88 386.69-1.2 383.9 0.49 380.23 0.49L380.23 0.49Q374.64 0.49 371.29-3.23 367.93-6.96 367.93-13.16L367.93-13.16ZM373.86-12.94L373.86-12.94Q373.86-8.86 375.55-6.56 377.23-4.25 380.23-4.25 383.24-4.25 384.91-6.59 386.58-8.94 386.58-13.45L386.58-13.45Q386.58-17.46 384.86-19.8 383.14-22.14 380.18-22.14L380.18-22.14Q377.28-22.14 375.57-19.84 373.86-17.53 373.86-12.94ZM408.36-4.25L408.36-4.25Q410.58-4.25 412.04-5.54 413.51-6.84 413.6-8.74L413.6-8.74 419.2-8.74Q419.1-6.27 417.66-4.14 416.22-2 413.75-0.76 411.29 0.49 408.43 0.49L408.43 0.49Q402.89 0.49 399.64-3.1 396.39-6.69 396.39-13.01L396.39-13.01 396.39-13.62Q396.39-19.65 399.62-23.28 402.84-26.9 408.4-26.9L408.4-26.9Q413.12-26.9 416.08-24.16 419.05-21.41 419.2-16.94L419.2-16.94 413.6-16.94Q413.51-19.21 412.05-20.68 410.6-22.14 408.36-22.14L408.36-22.14Q405.48-22.14 403.91-20.06 402.35-17.97 402.33-13.72L402.33-13.72 402.33-12.77Q402.33-8.47 403.88-6.36 405.43-4.25 408.36-4.25ZM438.48-7.18L438.48-7.18Q438.48-8.76 437.17-9.59 435.87-10.42 432.84-11.06 429.81-11.69 427.79-12.67L427.79-12.67Q423.34-14.82 423.34-18.9L423.34-18.9Q423.34-22.31 426.22-24.61 429.11-26.9 433.55-26.9L433.55-26.9Q438.29-26.9 441.2-24.56 444.12-22.22 444.12-18.48L444.12-18.48 438.19-18.48Q438.19-20.19 436.92-21.33 435.65-22.46 433.55-22.46L433.55-22.46Q431.6-22.46 430.36-21.56 429.13-20.65 429.13-19.14L429.13-19.14Q429.13-17.77 430.28-17.02 431.42-16.26 434.92-15.49 438.41-14.72 440.4-13.66 442.39-12.6 443.35-11.11 444.32-9.62 444.32-7.5L444.32-7.5Q444.32-3.93 441.36-1.72 438.41 0.49 433.62 0.49L433.62 0.49Q430.37 0.49 427.84-0.68 425.3-1.86 423.88-3.91 422.46-5.96 422.46-8.33L422.46-8.33 428.23-8.33Q428.35-6.23 429.81-5.09 431.28-3.96 433.7-3.96L433.7-3.96Q436.04-3.96 437.26-4.85 438.48-5.74 438.48-7.18ZM456.35-35.55L455.76-10.47 450.66-10.47 450.1-35.55 456.35-35.55ZM449.93-2.81L449.93-2.81Q449.93-4.2 450.83-5.11 451.73-6.03 453.3-6.03 454.86-6.03 455.76-5.11 456.67-4.2 456.67-2.81L456.67-2.81Q456.67-1.46 455.79-0.56 454.91 0.34 453.3 0.34 451.69 0.34 450.81-0.56 449.93-1.46 449.93-2.81Z" opacity="1" transform="matrix(1,0,0,1,0,0)" fill="#000000" class="wordmark-text-0" data-fill-palette-color="primary" id="text-0"></path></svg></g></svg></g></svg></g></svg></g><g><svg viewBox="0 0 67.12243920088592 68.205059187997" height="68.205059187997" width="67.12243920088592"><g><svg xmlns="http://www.w3.org/2000/svg" xmlns:xlink="http://www.w3.org/1999/xlink" version="1.1" x="0" y="0" viewBox="4 3.5 62 63" style="enable-background:new 0 0 70 70;" xml:space="preserve" height="68.205059187997" width="67.12243920088592" class="icon-icon-0" data-fill-palette-color="accent" id="icon-0"><path d="M10.041 44.479c-0.205 0.681-0.317 1.397-0.317 2.135 0 3.164 1.989 5.888 4.836 7.115v0.725c0 4.614 3.938 8.368 8.778 8.368 0.588 0 1.161-0.073 1.725-0.18C26.161 64.938 28.56 66.5 31.417 66.5c2.43 0 4.431-1.154 5.565-3H41c0.552 0 1-0.448 1-1v-4.533c2.845-0.599 5.601-1.739 8.057-3.336l3.206 3.206c0.188 0.188 0.442 0.293 0.707 0.293s0.52-0.105 0.707-0.293l5.66-5.66c0.391-0.391 0.391-1.023 0-1.414l-3.207-3.206c1.597-2.456 2.738-5.211 3.337-8.057H65c0.552 0 1-0.448 1-1v-8c0-0.552-0.448-1-1-1h-4.533c-0.599-2.845-1.74-5.601-3.337-8.056l3.207-3.207c0.391-0.391 0.391-1.023 0-1.414l-5.66-5.66c-0.375-0.375-1.039-0.375-1.414 0l-3.206 3.207C47.602 12.773 44.846 11.632 42 11.034V6.5c0-0.552-0.448-1-1-1h-4.882c-1.183-1.248-2.841-2-4.733-2-2.49 0-4.672 1.317-5.905 3.287h-1.848c-4.835 0-8.768 3.762-8.768 8.385v0.286c-4.188 0.366-7.486 3.887-7.486 8.168 0 1.802 0.594 3.464 1.586 4.818C6.055 29.92 4 33.073 4 36.32 4 40.009 6.529 43.326 10.041 44.479zM40 7.5v4.36c0 0.487 0.351 0.903 0.831 0.986 3.124 0.538 6.158 1.794 8.774 3.633 0.397 0.279 0.938 0.231 1.282-0.112l3.083-3.083 4.246 4.246-3.083 3.083c-0.344 0.344-0.391 0.884-0.112 1.282 1.839 2.618 3.096 5.652 3.634 8.774C58.737 31.149 59.153 31.5 59.64 31.5H64v6h-4.36c-0.487 0-0.903 0.351-0.985 0.831-0.538 3.123-1.794 6.157-3.634 8.774-0.279 0.397-0.232 0.938 0.112 1.282l3.083 3.083-4.246 4.246-3.083-3.083c-0.343-0.342-0.885-0.391-1.282-0.111-2.618 1.839-5.652 3.095-8.774 3.633C40.351 56.237 40 56.653 40 57.14V61.5h-2.207c0.128-0.55 0.202-1.128 0.202-1.737V49.45C45.802 48.933 52 42.435 52 34.5s-6.198-14.433-14.005-14.95v-9.124c0-1.06-0.21-2.045-0.582-2.926H40zM37.995 47.45V21.55C44.699 22.062 50 27.667 50 34.5S44.699 46.938 37.995 47.45zM10.438 29.994c1.409 1.135 3.197 1.818 5.145 1.818 0.552 0 1-0.448 1-1s-0.448-1-1-1c-3.421 0-6.205-2.775-6.205-6.186 0-3.421 2.784-6.205 6.205-6.205 1.654 0 3.207 0.644 4.374 1.813 0.391 0.391 1.023 0.391 1.414 0.002 0.391-0.391 0.392-1.023 0.002-1.415-1.239-1.241-2.808-2.025-4.509-2.291v-0.358c0-3.521 3.036-6.385 6.768-6.385h0.999c-0.134 0.539-0.213 1.1-0.213 1.68 0 0.315 0.023 0.618 0.058 0.921 0.064 0.548 0.563 0.951 1.108 0.878 0.549-0.063 0.942-0.56 0.878-1.108-0.026-0.227-0.044-0.455-0.044-0.691C26.418 7.729 28.646 5.5 31.385 5.5c2.671 0 4.61 2.072 4.61 4.926v49.337c0 2.789-1.883 4.737-4.578 4.737-2.803 0-4.999-2.063-4.999-4.696 0-0.699 0.153-1.407 0.441-2.047 0.228-0.503 0.004-1.096-0.499-1.322-0.503-0.227-1.095-0.003-1.323 0.499-0.411 0.909-0.619 1.875-0.619 2.87 0 0.314 0.029 0.619 0.071 0.92-0.379 0.06-0.764 0.097-1.151 0.098-3.738 0-6.779-2.857-6.778-6.368v-0.146c0.446 0.072 0.902 0.118 1.369 0.118 1.256 0 2.461-0.264 3.583-0.786 0.501-0.232 0.718-0.827 0.486-1.328-0.233-0.501-0.828-0.719-1.329-0.485-0.856 0.397-1.778 0.599-2.74 0.599-3.421 0-6.205-2.607-6.205-5.812 0-3.02 2.506-5.572 5.705-5.812 0.551-0.041 0.964-0.521 0.922-1.072-0.041-0.551-0.52-0.965-1.072-0.922-2.732 0.205-5.077 1.708-6.401 3.835C8.378 41.887 6 39.474 6 36.32 6 33.601 7.881 30.983 10.438 29.994z" fill="#000000" data-fill-palette-color="accent"></path><path d="M19.487 25.947c0.479 0.082 1.034 0.131 1.635 0.131 3.172 0 7.606-1.39 8.693-6.828 0.108-0.542-0.243-1.068-0.784-1.177-0.544-0.107-1.069 0.243-1.177 0.784-1.234 6.167-7.753 5.165-8.033 5.118-0.542-0.091-1.059 0.275-1.152 0.818C18.577 25.337 18.943 25.854 19.487 25.947z" fill="#000000" data-fill-palette-color="accent"></path><path d="M26.914 44.341c-2.156-1.24-4.37-0.65-4.465-0.624-0.53 0.146-0.839 0.691-0.696 1.222 0.143 0.531 0.692 0.847 1.222 0.707 0.404-0.106 4.013-0.896 5.318 4.05 0.118 0.448 0.523 0.745 0.967 0.745 0.084 0 0.17-0.011 0.256-0.033 0.534-0.141 0.853-0.688 0.711-1.222C29.62 46.886 28.505 45.256 26.914 44.341z" fill="#000000" data-fill-palette-color="accent"></path></svg></g></svg></g></svg></g><defs></defs></svg><rect width="395.52" height="57.344553737291065" fill="none" stroke="none" visibility="hidden"></rect></g></svg></g></svg>