<svg xmlns="http://www.w3.org/2000/svg" version="1.1" xmlns:xlink="http://www.w3.org/1999/xlink" xmlns:svgjs="http://svgjs.dev/svgjs" width="1500" height="200" viewBox="0 0 1500 200"><g transform="matrix(1,0,0,1,-0.9090909051803919,-0.37849703156393844)"><svg viewBox="0 0 396 53" data-background-color="#ffffff" preserveAspectRatio="xMidYMid meet" height="200" width="1500" xmlns="http://www.w3.org/2000/svg" xmlns:xlink="http://www.w3.org/1999/xlink"><g id="tight-bounds" transform="matrix(1,0,0,1,0.23999999896761892,0.10030171336444482)"><svg viewBox="0 0 395.52 52.799396573271096" height="52.799396573271096" width="395.52"><g><svg viewBox="0 0 463.4704393569063 61.870346702046646" height="52.799396573271096" width="395.52"><g transform="matrix(1,0,0,1,67.9504393569063,15.977783251796296)"><svg viewBox="0 0 395.52 29.914780198454054" height="29.914780198454054" width="395.52"><g id="textblocktransform"><svg viewBox="0 0 395.52 29.914780198454054" height="29.914780198454054" width="395.52" id="textblock"><g><svg viewBox="0 0 395.52 29.914780198454054" height="29.914780198454054" width="395.52"><g transform="matrix(1,0,0,1,0,0)"><svg width="395.52" viewBox="4.222972972972973 -36.3 486.504054051039 36.8" height="29.914780198454054" data-palette-color="#000000"><path d="M14.15 0L9.55 0Q9.05 0 8.78-0.35 8.5-0.7 8.6-1.2L8.6-1.2 14.5-28.85 5.25-28.85Q4.7-28.85 4.42-29.2 4.15-29.55 4.25-30.05L4.25-30.05 5.05-33.75Q5.15-34.3 5.58-34.65 6-35 6.5-35L6.5-35 32-35Q32.55-35 32.83-34.65 33.1-34.3 33-33.75L33-33.75 32.2-30.05Q32.1-29.55 31.7-29.2 31.3-28.85 30.75-28.85L30.75-28.85 21.5-28.85 15.6-1.2Q15.5-0.7 15.1-0.35 14.7 0 14.15 0L14.15 0ZM40 0.5L40 0.5Q37.4 0.5 35.6-0.38 33.8-1.25 32.77-2.85 31.75-4.45 31.45-6.63 31.15-8.8 31.55-11.4L31.55-11.4Q31.75-12.3 31.9-13.03 32.05-13.75 32.25-14.65L32.25-14.65Q32.9-17.15 33.97-19.3 35.05-21.45 36.62-23.08 38.2-24.7 40.32-25.6 42.45-26.5 45.2-26.5L45.2-26.5Q48.3-26.5 49.92-25.53 51.55-24.55 52.45-23.15L52.45-23.15 52.8-24.8Q52.9-25.3 53.3-25.65 53.7-26 54.2-26L54.2-26 58.15-26Q58.65-26 58.95-25.65 59.25-25.3 59.15-24.8L59.15-24.8 54.1-1.2Q54-0.7 53.6-0.35 53.2 0 52.7 0L52.7 0 48.75 0Q48.2 0 47.92-0.35 47.65-0.7 47.75-1.2L47.75-1.2 48.15-3.05Q46.65-1.5 44.85-0.5 43.05 0.5 40 0.5ZM42.25-4.85L42.25-4.85Q44.35-4.85 45.85-5.8 47.35-6.75 48.27-8.22 49.2-9.7 49.6-11.25L49.6-11.25Q49.85-12.15 50.05-13.18 50.25-14.2 50.4-15.1L50.4-15.1Q50.7-16.6 50.45-17.98 50.2-19.35 49.17-20.25 48.15-21.15 46.1-21.15L46.1-21.15Q44.15-21.15 42.77-20.23 41.4-19.3 40.5-17.8 39.6-16.3 39.05-14.5L39.05-14.5Q38.85-13.75 38.7-13 38.55-12.25 38.45-11.5L38.45-11.5Q38.2-9.7 38.32-8.2 38.45-6.7 39.37-5.78 40.3-4.85 42.25-4.85ZM65.89 0L61.74 0Q61.24 0 60.97-0.35 60.7-0.7 60.8-1.2L60.8-1.2 67.84-34.3Q67.94-34.8 68.34-35.15 68.75-35.5 69.25-35.5L69.25-35.5 73.39-35.5Q73.94-35.5 74.22-35.15 74.5-34.8 74.39-34.3L74.39-34.3 67.34-1.2Q67.25-0.7 66.84-0.35 66.44 0 65.89 0L65.89 0ZM79.09 0L74.99 0Q74.49 0 74.22-0.35 73.94-0.7 74.04-1.2L74.04-1.2 81.09-34.3Q81.19-34.8 81.59-35.15 81.99-35.5 82.49-35.5L82.49-35.5 86.59-35.5Q87.09-35.5 87.37-35.15 87.64-34.8 87.54-34.3L87.54-34.3 83.94-17.4 93.74-25.15Q94.29-25.55 94.69-25.78 95.09-26 95.79-26L95.79-26 100.89-26Q101.69-26 101.79-25.3 101.89-24.6 101.09-24L101.09-24 88.74-14 97.54-1.75Q97.99-1.2 97.67-0.6 97.34 0 96.59 0L96.59 0 92.04 0Q91.34 0 91.02-0.28 90.69-0.55 90.49-0.8L90.49-0.8 82.69-11.5 80.49-1.2Q80.39-0.7 79.99-0.35 79.59 0 79.09 0L79.09 0ZM122.74 0L119.29 0Q118.54 0 118.16-0.43 117.79-0.85 117.84-1.5L117.84-1.5 118.49-33.9Q118.54-34.35 118.86-34.68 119.19-35 119.69-35L119.69-35 123.94-35Q124.59-35 124.89-34.7 125.19-34.4 125.14-33.85L125.14-33.85 124.59-11.7 132.14-26Q132.34-26.4 132.79-26.83 133.24-27.25 133.99-27.25L133.99-27.25 136.69-27.25Q137.49-27.25 137.74-26.83 137.99-26.4 138.04-26L138.04-26 139.59-11.4 148.54-34Q148.89-35 150.14-35L150.14-35 154.69-35Q155.29-35 155.46-34.63 155.64-34.25 155.44-33.7L155.44-33.7 142.94-1.5Q142.69-0.85 142.16-0.43 141.64 0 140.89 0L140.89 0 137.34 0Q136.59 0 136.24-0.4 135.89-0.8 135.84-1.25L135.84-1.25 133.49-17.9 124.74-1.25Q124.44-0.8 123.96-0.4 123.49 0 122.74 0L122.74 0ZM158.79 0L154.64 0Q154.14 0 153.86-0.35 153.59-0.7 153.69-1.2L153.69-1.2 158.69-24.8Q158.79-25.3 159.21-25.65 159.64-26 160.14-26L160.14-26 164.29-26Q164.84-26 165.09-25.65 165.34-25.3 165.24-24.8L165.24-24.8 160.24-1.2Q160.14-0.7 159.74-0.35 159.34 0 158.79 0L158.79 0ZM165.44-30.3L160.84-30.3Q160.34-30.3 160.06-30.65 159.79-31 159.89-31.5L159.89-31.5 160.69-35.1Q160.79-35.6 161.19-35.95 161.59-36.3 162.14-36.3L162.14-36.3 166.69-36.3Q167.19-36.3 167.49-35.95 167.79-35.6 167.69-35.1L167.69-35.1 166.89-31.5Q166.79-31 166.36-30.65 165.94-30.3 165.44-30.3L165.44-30.3ZM182.18 0L178.63 0Q175.23 0 173.33-1.05 171.43-2.1 170.88-4.17 170.33-6.25 170.98-9.35L170.98-9.35 173.43-20.7 169.48-20.7Q168.98-20.7 168.71-21.05 168.43-21.4 168.53-21.95L168.53-21.95 169.13-24.8Q169.23-25.3 169.66-25.65 170.08-26 170.63-26L170.63-26 174.53-26 176.33-34.3Q176.43-34.8 176.83-35.15 177.23-35.5 177.73-35.5L177.73-35.5 181.78-35.5Q182.33-35.5 182.61-35.15 182.88-34.8 182.78-34.3L182.78-34.3 180.98-26 187.23-26Q187.73-26 188.01-25.65 188.28-25.3 188.18-24.8L188.18-24.8 187.58-21.95Q187.48-21.4 187.06-21.05 186.63-20.7 186.13-20.7L186.13-20.7 179.88-20.7 177.58-9.85Q177.28-8.5 177.26-7.53 177.23-6.55 177.78-6.03 178.33-5.5 179.73-5.5L179.73-5.5 183.33-5.5Q183.88-5.5 184.13-5.15 184.38-4.8 184.28-4.3L184.28-4.3 183.63-1.2Q183.53-0.7 183.13-0.35 182.73 0 182.18 0L182.18 0ZM193.48 0L188.98 0Q188.48 0 188.21-0.35 187.93-0.7 188.03-1.2L188.03-1.2 195.08-34.3Q195.18-34.8 195.58-35.15 195.98-35.5 196.48-35.5L196.48-35.5 200.98-35.5Q201.48-35.5 201.76-35.15 202.03-34.8 201.93-34.3L201.93-34.3 199.48-22.9Q201.08-24.5 203.06-25.5 205.03-26.5 207.83-26.5L207.83-26.5Q211.08-26.5 213.16-25.13 215.23-23.75 216.03-21.25 216.83-18.75 216.08-15.25L216.08-15.25 213.08-1.2Q212.98-0.7 212.58-0.35 212.18 0 211.63 0L211.63 0 207.13 0Q206.63 0 206.36-0.35 206.08-0.7 206.18-1.2L206.18-1.2 209.08-14.95Q209.73-17.85 208.83-19.5 207.93-21.15 205.18-21.15L205.18-21.15Q203.48-21.15 201.96-20.43 200.43-19.7 199.33-18.3 198.23-16.9 197.78-14.95L197.78-14.95 194.88-1.2Q194.78-0.7 194.38-0.35 193.98 0 193.48 0L193.48 0ZM246.28 0L241.83 0Q241.28 0 241-0.35 240.73-0.7 240.83-1.2L240.83-1.2 243.18-12.5 235.83-33.4Q235.63-33.95 236-34.48 236.38-35 237.03-35L237.03-35 241.18-35Q241.78-35 242.08-34.7 242.38-34.4 242.53-34.05L242.53-34.05 247.78-19.55 259.23-34.05Q259.48-34.4 259.9-34.7 260.33-35 260.93-35L260.93-35 265.88-35Q266.68-35 266.75-34.45 266.83-33.9 266.43-33.4L266.43-33.4 250.18-12.5 247.73-1.2Q247.63-0.7 247.23-0.35 246.83 0 246.28 0L246.28 0ZM275.62 0.5L275.62 0.5Q271.82 0.5 269.3-0.9 266.77-2.3 265.7-4.85 264.62-7.4 265.17-10.8L265.17-10.8Q265.32-11.7 265.6-13 265.87-14.3 266.12-15.2L266.12-15.2Q267.02-18.65 268.9-21.18 270.77-23.7 273.7-25.1 276.62-26.5 280.62-26.5L280.62-26.5Q284.42-26.5 286.95-25.1 289.47-23.7 290.57-21.18 291.67-18.65 291.12-15.2L291.12-15.2Q290.92-14.3 290.67-13 290.42-11.7 290.17-10.8L290.17-10.8Q289.27-7.4 287.45-4.85 285.62-2.3 282.7-0.9 279.77 0.5 275.62 0.5ZM276.12-4.45L276.12-4.45Q278.82-4.45 280.7-6.13 282.57-7.8 283.42-11.05L283.42-11.05Q283.62-11.8 283.87-13 284.12-14.2 284.27-14.95L284.27-14.95Q284.82-18.2 283.82-19.88 282.82-21.55 280.12-21.55L280.12-21.55Q277.47-21.55 275.57-19.88 273.67-18.2 272.87-14.95L272.87-14.95Q272.67-14.2 272.4-13 272.12-11.8 272.02-11.05L272.02-11.05Q271.47-7.8 272.45-6.13 273.42-4.45 276.12-4.45ZM303.52 0.5L303.52 0.5Q300.27 0.5 298.22-0.88 296.17-2.25 295.5-4.78 294.82-7.3 295.52-10.75L295.52-10.75 298.52-24.8Q298.62-25.3 299.05-25.65 299.47-26 299.97-26L299.97-26 304.37-26Q304.87-26 305.12-25.65 305.37-25.3 305.27-24.8L305.27-24.8 302.37-11.05Q301.92-9 302.1-7.63 302.27-6.25 303.22-5.55 304.17-4.85 306.17-4.85L306.17-4.85Q308.87-4.85 310.87-6.5 312.87-8.15 313.47-11.05L313.47-11.05 316.42-24.8Q316.52-25.3 316.95-25.65 317.37-26 317.87-26L317.87-26 322.22-26Q322.77-26 323.02-25.65 323.27-25.3 323.17-24.8L323.17-24.8 318.17-1.2Q318.07-0.7 317.67-0.35 317.27 0 316.72 0L316.72 0 312.67 0Q312.17 0 311.9-0.35 311.62-0.7 311.72-1.2L311.72-1.2 312.12-3.25Q311.02-2.1 309.87-1.25 308.72-0.4 307.22 0.05 305.72 0.5 303.52 0.5ZM330.12 0L325.77 0Q325.27 0 324.99-0.35 324.72-0.7 324.82-1.2L324.82-1.2 329.82-24.75Q329.92-25.3 330.34-25.65 330.77-26 331.27-26L331.27-26 335.32-26Q335.82-26 336.09-25.65 336.37-25.3 336.27-24.75L336.27-24.75 335.82-22.7Q337.02-24.3 338.87-25.15 340.72-26 343.37-26L343.37-26 345.82-26Q346.37-26 346.62-25.65 346.87-25.3 346.77-24.8L346.77-24.8 346.02-21.2Q345.92-20.7 345.49-20.35 345.07-20 344.57-20L344.57-20 340.67-20Q338.27-20 336.64-18.68 335.02-17.35 334.52-14.95L334.52-14.95 331.57-1.2Q331.47-0.7 331.07-0.35 330.67 0 330.12 0L330.12 0ZM372.06 0L358.96 0Q358.41 0 358.14-0.35 357.86-0.7 357.96-1.2L357.96-1.2 364.91-33.75Q365.01-34.3 365.41-34.65 365.81-35 366.36-35L366.36-35 377.81-35Q381.11-35 383.76-34.13 386.41-33.25 388.16-31.53 389.91-29.8 390.61-27.25 391.31-24.7 390.71-21.4L390.71-21.4Q390.26-19.2 389.91-17.5 389.56-15.8 389.01-13.65L389.01-13.65Q387.91-9 385.89-5.98 383.86-2.95 380.54-1.48 377.21 0 372.06 0L372.06 0ZM370.91-29.25L365.91-5.75 372.31-5.75Q375.11-5.75 377.04-6.55 378.96-7.35 380.16-9.13 381.36-10.9 382.01-13.8L382.01-13.8Q382.41-15.3 382.66-16.43 382.91-17.55 383.14-18.68 383.36-19.8 383.61-21.25L383.61-21.25Q384.41-25.35 382.89-27.3 381.36-29.25 377.06-29.25L377.06-29.25 370.91-29.25ZM403.91 0.5L403.91 0.5Q400.11 0.5 397.59-0.9 395.06-2.3 393.99-4.85 392.91-7.4 393.46-10.8L393.46-10.8Q393.61-11.7 393.89-13 394.16-14.3 394.41-15.2L394.41-15.2Q395.31-18.65 397.19-21.18 399.06-23.7 401.99-25.1 404.91-26.5 408.91-26.5L408.91-26.5Q412.71-26.5 415.24-25.1 417.76-23.7 418.86-21.18 419.96-18.65 419.41-15.2L419.41-15.2Q419.21-14.3 418.96-13 418.71-11.7 418.46-10.8L418.46-10.8Q417.56-7.4 415.74-4.85 413.91-2.3 410.99-0.9 408.06 0.5 403.91 0.5ZM404.41-4.45L404.41-4.45Q407.11-4.45 408.99-6.13 410.86-7.8 411.71-11.05L411.71-11.05Q411.91-11.8 412.16-13 412.41-14.2 412.56-14.95L412.56-14.95Q413.11-18.2 412.11-19.88 411.11-21.55 408.41-21.55L408.41-21.55Q405.76-21.55 403.86-19.88 401.96-18.2 401.16-14.95L401.16-14.95Q400.96-14.2 400.69-13 400.41-11.8 400.31-11.05L400.31-11.05Q399.76-7.8 400.74-6.13 401.71-4.45 404.41-4.45ZM433.21 0.5L433.21 0.5Q429.86 0.5 427.33-0.85 424.81-2.2 423.61-4.78 422.41-7.35 423.06-11L423.06-11Q423.21-11.75 423.46-12.98 423.71-14.2 423.91-15L423.91-15Q425.26-20.45 428.91-23.48 432.56-26.5 438.21-26.5L438.21-26.5Q441.36-26.5 443.48-25.6 445.61-24.7 446.83-23.3 448.06-21.9 448.53-20.4 449.01-18.9 448.86-17.7L448.86-17.7Q448.81-17.15 448.43-16.82 448.06-16.5 447.56-16.5L447.56-16.5 443.01-16.5Q442.51-16.5 442.23-16.75 441.96-17 441.91-17.5L441.91-17.5Q441.91-19.5 440.83-20.4 439.76-21.3 437.76-21.3L437.76-21.3Q435.31-21.3 433.38-19.73 431.46-18.15 430.61-14.75L430.61-14.75Q430.41-13.85 430.21-12.9 430.01-11.95 429.86-11.25L429.86-11.25Q429.31-7.8 430.36-6.25 431.41-4.7 433.86-4.7L433.86-4.7Q435.81-4.7 437.36-5.53 438.91-6.35 439.96-8.35L439.96-8.35Q440.26-8.9 440.58-9.13 440.91-9.35 441.41-9.35L441.41-9.35 445.91-9.35Q446.41-9.35 446.68-9.03 446.96-8.7 446.81-8.15L446.81-8.15Q446.46-7.05 445.53-5.58 444.61-4.1 443.01-2.7 441.41-1.3 438.98-0.4 436.56 0.5 433.21 0.5ZM460.71 0.5L460.71 0.5Q457.71 0.5 455.73-0.2 453.76-0.9 452.63-1.95 451.51-3 451.08-4.05 450.66-5.1 450.76-5.8L450.76-5.8Q450.86-6.35 451.28-6.68 451.71-7 452.16-7L452.16-7 456.11-7Q456.31-7 456.46-6.95 456.61-6.9 456.76-6.65L456.76-6.65Q457.31-6.1 457.91-5.5 458.51-4.9 459.43-4.48 460.36-4.05 461.86-4.05L461.86-4.05Q463.81-4.05 465.28-4.83 466.76-5.6 467.06-7.05L467.06-7.05Q467.26-8.1 466.81-8.75 466.36-9.4 464.96-9.93 463.56-10.45 460.81-11.05L460.81-11.05Q458.11-11.7 456.48-12.7 454.86-13.7 454.28-15.2 453.71-16.7 454.16-18.7L454.16-18.7Q454.56-20.65 456.11-22.43 457.66-24.2 460.23-25.35 462.81-26.5 466.26-26.5L466.26-26.5Q468.96-26.5 470.83-25.83 472.71-25.15 473.83-24.15 474.96-23.15 475.41-22.13 475.86-21.1 475.71-20.35L475.71-20.35Q475.66-19.8 475.23-19.48 474.81-19.15 474.36-19.15L474.36-19.15 470.71-19.15Q470.46-19.15 470.26-19.25 470.06-19.35 469.96-19.5L469.96-19.5Q469.46-20 468.93-20.58 468.41-21.15 467.58-21.55 466.76-21.95 465.26-21.95L465.26-21.95Q463.36-21.95 462.18-21.13 461.01-20.3 460.71-19.05L460.71-19.05Q460.56-18.2 460.88-17.57 461.21-16.95 462.56-16.4 463.91-15.85 466.66-15.25L466.66-15.25Q469.91-14.65 471.63-13.48 473.36-12.3 473.88-10.78 474.41-9.25 474.01-7.4L474.01-7.4Q473.56-5.15 471.83-3.35 470.11-1.55 467.31-0.53 464.51 0.5 460.71 0.5ZM484.35-9.7L480.3-9.7Q479.8-9.7 479.55-10.03 479.3-10.35 479.4-10.9L479.4-10.9 484.25-33.8Q484.35-34.3 484.75-34.65 485.15-35 485.7-35L485.7-35 489.7-35Q490.25-35 490.53-34.65 490.8-34.3 490.7-33.8L490.7-33.8 485.8-10.9Q485.7-10.35 485.28-10.03 484.85-9.7 484.35-9.7L484.35-9.7ZM482.6 0L477.95 0Q477.45 0 477.15-0.35 476.85-0.7 476.95-1.2L476.95-1.2 477.95-5.85Q478.05-6.4 478.48-6.75 478.9-7.1 479.45-7.1L479.45-7.1 484.1-7.1Q484.6-7.1 484.88-6.75 485.15-6.4 485.05-5.85L485.05-5.85 484.05-1.2Q483.95-0.7 483.55-0.35 483.15 0 482.6 0L482.6 0Z" opacity="1" transform="matrix(1,0,0,1,0,0)" fill="#000000" class="wordmark-text-0" data-fill-palette-color="primary" id="text-0"></path></svg></g></svg></g></svg></g></svg></g><g><svg viewBox="0 0 60.888277706776066 61.870346702046646" height="61.870346702046646" width="60.888277706776066"><g><svg xmlns="http://www.w3.org/2000/svg" xmlns:xlink="http://www.w3.org/1999/xlink" version="1.1" x="0" y="0" viewBox="4 3.5 62 63" style="enable-background:new 0 0 70 70;" xml:space="preserve" height="61.870346702046646" width="60.888277706776066" class="icon-icon-0" data-fill-palette-color="accent" id="icon-0"><path d="M10.041 44.479c-0.205 0.681-0.317 1.397-0.317 2.135 0 3.164 1.989 5.888 4.836 7.115v0.725c0 4.614 3.938 8.368 8.778 8.368 0.588 0 1.161-0.073 1.725-0.18C26.161 64.938 28.56 66.5 31.417 66.5c2.43 0 4.431-1.154 5.565-3H41c0.552 0 1-0.448 1-1v-4.533c2.845-0.599 5.601-1.739 8.057-3.336l3.206 3.206c0.188 0.188 0.442 0.293 0.707 0.293s0.52-0.105 0.707-0.293l5.66-5.66c0.391-0.391 0.391-1.023 0-1.414l-3.207-3.206c1.597-2.456 2.738-5.211 3.337-8.057H65c0.552 0 1-0.448 1-1v-8c0-0.552-0.448-1-1-1h-4.533c-0.599-2.845-1.74-5.601-3.337-8.056l3.207-3.207c0.391-0.391 0.391-1.023 0-1.414l-5.66-5.66c-0.375-0.375-1.039-0.375-1.414 0l-3.206 3.207C47.602 12.773 44.846 11.632 42 11.034V6.5c0-0.552-0.448-1-1-1h-4.882c-1.183-1.248-2.841-2-4.733-2-2.49 0-4.672 1.317-5.905 3.287h-1.848c-4.835 0-8.768 3.762-8.768 8.385v0.286c-4.188 0.366-7.486 3.887-7.486 8.168 0 1.802 0.594 3.464 1.586 4.818C6.055 29.92 4 33.073 4 36.32 4 40.009 6.529 43.326 10.041 44.479zM40 7.5v4.36c0 0.487 0.351 0.903 0.831 0.986 3.124 0.538 6.158 1.794 8.774 3.633 0.397 0.279 0.938 0.231 1.282-0.112l3.083-3.083 4.246 4.246-3.083 3.083c-0.344 0.344-0.391 0.884-0.112 1.282 1.839 2.618 3.096 5.652 3.634 8.774C58.737 31.149 59.153 31.5 59.64 31.5H64v6h-4.36c-0.487 0-0.903 0.351-0.985 0.831-0.538 3.123-1.794 6.157-3.634 8.774-0.279 0.397-0.232 0.938 0.112 1.282l3.083 3.083-4.246 4.246-3.083-3.083c-0.343-0.342-0.885-0.391-1.282-0.111-2.618 1.839-5.652 3.095-8.774 3.633C40.351 56.237 40 56.653 40 57.14V61.5h-2.207c0.128-0.55 0.202-1.128 0.202-1.737V49.45C45.802 48.933 52 42.435 52 34.5s-6.198-14.433-14.005-14.95v-9.124c0-1.06-0.21-2.045-0.582-2.926H40zM37.995 47.45V21.55C44.699 22.062 50 27.667 50 34.5S44.699 46.938 37.995 47.45zM10.438 29.994c1.409 1.135 3.197 1.818 5.145 1.818 0.552 0 1-0.448 1-1s-0.448-1-1-1c-3.421 0-6.205-2.775-6.205-6.186 0-3.421 2.784-6.205 6.205-6.205 1.654 0 3.207 0.644 4.374 1.813 0.391 0.391 1.023 0.391 1.414 0.002 0.391-0.391 0.392-1.023 0.002-1.415-1.239-1.241-2.808-2.025-4.509-2.291v-0.358c0-3.521 3.036-6.385 6.768-6.385h0.999c-0.134 0.539-0.213 1.1-0.213 1.68 0 0.315 0.023 0.618 0.058 0.921 0.064 0.548 0.563 0.951 1.108 0.878 0.549-0.063 0.942-0.56 0.878-1.108-0.026-0.227-0.044-0.455-0.044-0.691C26.418 7.729 28.646 5.5 31.385 5.5c2.671 0 4.61 2.072 4.61 4.926v49.337c0 2.789-1.883 4.737-4.578 4.737-2.803 0-4.999-2.063-4.999-4.696 0-0.699 0.153-1.407 0.441-2.047 0.228-0.503 0.004-1.096-0.499-1.322-0.503-0.227-1.095-0.003-1.323 0.499-0.411 0.909-0.619 1.875-0.619 2.87 0 0.314 0.029 0.619 0.071 0.92-0.379 0.06-0.764 0.097-1.151 0.098-3.738 0-6.779-2.857-6.778-6.368v-0.146c0.446 0.072 0.902 0.118 1.369 0.118 1.256 0 2.461-0.264 3.583-0.786 0.501-0.232 0.718-0.827 0.486-1.328-0.233-0.501-0.828-0.719-1.329-0.485-0.856 0.397-1.778 0.599-2.74 0.599-3.421 0-6.205-2.607-6.205-5.812 0-3.02 2.506-5.572 5.705-5.812 0.551-0.041 0.964-0.521 0.922-1.072-0.041-0.551-0.52-0.965-1.072-0.922-2.732 0.205-5.077 1.708-6.401 3.835C8.378 41.887 6 39.474 6 36.32 6 33.601 7.881 30.983 10.438 29.994z" fill="#000000" data-fill-palette-color="accent"></path><path d="M19.487 25.947c0.479 0.082 1.034 0.131 1.635 0.131 3.172 0 7.606-1.39 8.693-6.828 0.108-0.542-0.243-1.068-0.784-1.177-0.544-0.107-1.069 0.243-1.177 0.784-1.234 6.167-7.753 5.165-8.033 5.118-0.542-0.091-1.059 0.275-1.152 0.818C18.577 25.337 18.943 25.854 19.487 25.947z" fill="#000000" data-fill-palette-color="accent"></path><path d="M26.914 44.341c-2.156-1.24-4.37-0.65-4.465-0.624-0.53 0.146-0.839 0.691-0.696 1.222 0.143 0.531 0.692 0.847 1.222 0.707 0.404-0.106 4.013-0.896 5.318 4.05 0.118 0.448 0.523 0.745 0.967 0.745 0.084 0 0.17-0.011 0.256-0.033 0.534-0.141 0.853-0.688 0.711-1.222C29.62 46.886 28.505 45.256 26.914 44.341z" fill="#000000" data-fill-palette-color="accent"></path></svg></g></svg></g></svg></g><defs></defs></svg><rect width="395.52" height="52.799396573271096" fill="none" stroke="none" visibility="hidden"></rect></g></svg></g></svg>