<svg xmlns="http://www.w3.org/2000/svg" version="1.1" xmlns:xlink="http://www.w3.org/1999/xlink" xmlns:svgjs="http://svgjs.dev/svgjs" width="2000" height="348" viewBox="0 0 2000 348"><g transform="matrix(1,0,0,1,-1.2121212121212466,0.6530029839558438)"><svg viewBox="0 0 396 69" data-background-color="#ffffff" preserveAspectRatio="xMidYMid meet" height="348" width="2000" xmlns="http://www.w3.org/2000/svg" xmlns:xlink="http://www.w3.org/1999/xlink"><g id="tight-bounds" transform="matrix(1,0,0,1,0.2400000000000091,-0.12947472957745276)"><svg viewBox="0 0 395.52 69.25894945915489" height="69.25894945915489" width="395.52"><g><svg viewBox="0 0 489.6969360150008 85.75013992153607" height="69.25894945915489" width="395.52"><g transform="matrix(1,0,0,1,94.17693601500086,22.14464961826674)"><svg viewBox="0 0 395.5199999999999 41.460840685002594" height="41.460840685002594" width="395.5199999999999"><g id="textblocktransform"><svg viewBox="0 0 395.5199999999999 41.460840685002594" height="41.460840685002594" width="395.5199999999999" id="textblock"><g><svg viewBox="0 0 395.5199999999999 41.460840685002594" height="41.460840685002594" width="395.5199999999999"><g transform="matrix(1,0,0,1,0,0)"><svg width="395.5199999999999" viewBox="0.4 -39.65 385.35 40.4" height="41.460840685002594" data-palette-color="#000000"><path d="M0.4-34.55L21.95-34.55 21.25-29.55 14.15-29.55 14.15 0 7.8 0 7.8-29.55 0.4-29.55 0.4-34.55ZM41.75-6.4Q41.75-5.1 42.1-4.48 42.45-3.85 43.25-3.45L43.25-3.45 42 0.65Q39.95 0.4 38.72-0.45 37.5-1.3 36.9-3.05L36.9-3.05Q34.6 0.75 30.45 0.75L30.45 0.75Q27.15 0.75 25.2-1.48 23.25-3.7 23.25-7.4L23.25-7.4Q23.25-11.7 25.92-13.95 28.6-16.2 33.7-16.2L33.7-16.2 35.75-16.2 35.75-18.05Q35.75-20.55 34.87-21.58 34-22.6 32.05-22.6L32.05-22.6Q29.7-22.6 26.2-21.3L26.2-21.3 24.8-25.3Q26.8-26.2 28.95-26.68 31.1-27.15 33.05-27.15L33.05-27.15Q41.75-27.15 41.75-18.35L41.75-18.35 41.75-6.4ZM32.1-3.7Q34.5-3.7 35.75-7L35.75-7 35.75-12.55 34.3-12.55Q31.75-12.55 30.57-11.4 29.4-10.25 29.4-7.85L29.4-7.85Q29.4-5.8 30.1-4.75 30.8-3.7 32.1-3.7L32.1-3.7ZM53.15 0.75Q50.45 0.75 48.87-0.93 47.3-2.6 47.3-5.4L47.3-5.4 47.3-37.05 53.45-37.7 53.45-5.65Q53.45-5 53.75-4.6 54.05-4.2 54.65-4.2L54.65-4.2Q55-4.2 55.32-4.3 55.65-4.4 55.75-4.4L55.75-4.4 56.95-0.2Q55.25 0.75 53.15 0.75L53.15 0.75ZM59.99-37.05L66.14-37.7 66.14 0 59.99 0 59.99-37.05ZM73.49-26.45L79.49-26.45 72.49-14.75 80.09 0 73.49 0 66.39-14.45 73.49-26.45ZM118.14-34.55L124.04-34.55 119.19 0 110.84 0 107.14-27.8 103.29 0 95.09 0 90.34-34.55 96.49-34.55 99.69-5.1 103.84-34.55 110.59-34.55 114.64-5.1 118.14-34.55ZM127.59-26.45L133.74-26.45 133.74 0 127.59 0 127.59-26.45ZM130.64-39.65Q132.29-39.65 133.31-38.6 134.34-37.55 134.34-35.9L134.34-35.9Q134.34-34.3 133.31-33.25 132.29-32.2 130.64-32.2L130.64-32.2Q128.99-32.2 127.96-33.25 126.94-34.3 126.94-35.9L126.94-35.9Q126.94-37.55 127.96-38.6 128.99-39.65 130.64-39.65L130.64-39.65ZM150.58-5L152.73-1.2Q150.28 0.75 146.98 0.75L146.98 0.75Q143.53 0.75 141.73-1.23 139.93-3.2 139.93-6.6L139.93-6.6 139.93-22 136.83-22 136.83-26.45 139.93-26.45 139.93-32.3 146.08-33.05 146.08-26.45 151.08-26.45 150.48-22 146.08-22 146.08-6.6Q146.08-4.2 148.13-4.2L148.13-4.2Q148.78-4.2 149.28-4.38 149.78-4.55 150.58-5L150.58-5ZM167.63-27.15Q170.48-27.15 172.13-25.1 173.78-23.05 173.78-19.6L173.78-19.6 173.78 0 167.63 0 167.63-18.9Q167.63-20.8 167.11-21.63 166.58-22.45 165.58-22.45L165.58-22.45Q163.48-22.45 161.43-18.5L161.43-18.5 161.43 0 155.28 0 155.28-37 161.43-37.65 161.43-23.3Q162.68-25.25 164.16-26.2 165.63-27.15 167.63-27.15L167.63-27.15ZM204.18-34.55L210.68-34.55 201.58-13.15 201.58 0 195.18 0 195.18-13.1 186.08-34.55 192.83-34.55 198.48-18.3 204.18-34.55ZM222.67-27.15Q227.67-27.15 230.45-23.65 233.22-20.15 233.22-13.25L233.22-13.25Q233.22-6.65 230.42-2.95 227.62 0.75 222.67 0.75L222.67 0.75Q217.72 0.75 214.92-2.88 212.12-6.5 212.12-13.25L212.12-13.25Q212.12-19.95 214.92-23.55 217.72-27.15 222.67-27.15L222.67-27.15ZM222.67-22.5Q220.52-22.5 219.52-20.38 218.52-18.25 218.52-13.25L218.52-13.25Q218.52-8.2 219.52-6.08 220.52-3.95 222.67-3.95L222.67-3.95Q224.82-3.95 225.82-6.08 226.82-8.2 226.82-13.25L226.82-13.25Q226.82-18.3 225.82-20.4 224.82-22.5 222.67-22.5L222.67-22.5ZM255.92-26.45L255.92 0 250.57 0 250.27-3.35Q249.02-1.3 247.47-0.28 245.92 0.75 243.87 0.75L243.87 0.75Q240.97 0.75 239.3-1.3 237.62-3.35 237.62-6.65L237.62-6.65 237.62-26.45 243.77-26.45 243.77-7Q243.77-3.9 245.87-3.9L245.87-3.9Q247.07-3.9 248.02-4.83 248.97-5.75 249.77-7.45L249.77-7.45 249.77-26.45 255.92-26.45ZM273.27-27.1Q274.42-27.1 275.32-26.75L275.32-26.75 274.32-20.85Q273.32-21.1 272.47-21.1L272.47-21.1Q270.57-21.1 269.47-19.45 268.37-17.8 267.77-14.55L267.77-14.55 267.77 0 261.62 0 261.62-26.45 266.97-26.45 267.42-21.85Q269.27-27.1 273.27-27.1L273.27-27.1ZM295.86-34.55Q300.21-34.55 303.39-33.23 306.56-31.9 308.54-28.13 310.51-24.35 310.51-17.45L310.51-17.45Q310.51-7.7 306.64-3.85 302.76 0 296.51 0L296.51 0 288.16 0 288.16-34.55 295.86-34.55ZM296.81-29.8L294.51-29.8 294.51-4.75 296.86-4.75Q299.11-4.75 300.64-5.8 302.16-6.85 303.04-9.65 303.91-12.45 303.91-17.45L303.91-17.45Q303.91-22.55 302.99-25.25 302.06-27.95 300.54-28.88 299.01-29.8 296.81-29.8L296.81-29.8ZM324.51-27.15Q329.51-27.15 332.29-23.65 335.06-20.15 335.06-13.25L335.06-13.25Q335.06-6.65 332.26-2.95 329.46 0.75 324.51 0.75L324.51 0.75Q319.56 0.75 316.76-2.88 313.96-6.5 313.96-13.25L313.96-13.25Q313.96-19.95 316.76-23.55 319.56-27.15 324.51-27.15L324.51-27.15ZM324.51-22.5Q322.36-22.5 321.36-20.38 320.36-18.25 320.36-13.25L320.36-13.25Q320.36-8.2 321.36-6.08 322.36-3.95 324.51-3.95L324.51-3.95Q326.66-3.95 327.66-6.08 328.66-8.2 328.66-13.25L328.66-13.25Q328.66-18.3 327.66-20.4 326.66-22.5 324.51-22.5L324.51-22.5ZM349.11-27.15Q351.26-27.15 353.01-26.43 354.76-25.7 356.36-24.15L356.36-24.15 353.71-20.65Q352.61-21.55 351.63-21.98 350.66-22.4 349.51-22.4L349.51-22.4Q347.26-22.4 346.11-20.28 344.96-18.15 344.96-13.1L344.96-13.1Q344.96-8.2 346.13-6.2 347.31-4.2 349.51-4.2L349.51-4.2Q350.61-4.2 351.51-4.6 352.41-5 353.61-5.85L353.61-5.85 356.36-2.3Q353.16 0.75 349.21 0.75L349.21 0.75Q344.11 0.75 341.28-2.73 338.46-6.2 338.46-13L338.46-13Q338.46-17.4 339.76-20.6 341.06-23.8 343.48-25.48 345.91-27.15 349.11-27.15L349.11-27.15ZM366.76-27.15Q371.46-27.15 374.71-24.05L374.71-24.05 372.36-20.7Q370.96-21.7 369.71-22.2 368.46-22.7 367.16-22.7L367.16-22.7Q365.71-22.7 364.88-21.93 364.06-21.15 364.06-19.8L364.06-19.8Q364.06-18.45 364.98-17.63 365.91-16.8 368.71-15.7L368.71-15.7Q372.16-14.35 373.81-12.5 375.46-10.65 375.46-7.55L375.46-7.55Q375.46-3.7 372.76-1.48 370.06 0.75 365.91 0.75L365.91 0.75Q363.21 0.75 360.93-0.23 358.66-1.2 356.96-2.95L356.96-2.95 359.96-6.25Q362.76-3.8 365.66-3.8L365.66-3.8Q367.31-3.8 368.26-4.67 369.21-5.55 369.21-7.1L369.21-7.1Q369.21-8.25 368.81-8.97 368.41-9.7 367.41-10.33 366.41-10.95 364.41-11.7L364.41-11.7Q360.96-13.05 359.48-14.85 358.01-16.65 358.01-19.45L358.01-19.45Q358.01-22.8 360.38-24.98 362.76-27.15 366.76-27.15L366.76-27.15ZM378.65-34.55L385.2-34.55 384.35-12.1 379.5-12.1 378.65-34.55ZM381.95-7.05Q383.6-7.05 384.68-5.9 385.75-4.75 385.75-3.15L385.75-3.15Q385.75-1.55 384.68-0.4 383.6 0.75 381.95 0.75L381.95 0.75Q380.3 0.75 379.23-0.4 378.15-1.55 378.15-3.15L378.15-3.15Q378.15-4.75 379.23-5.9 380.3-7.05 381.95-7.05L381.95-7.05Z" opacity="1" transform="matrix(1,0,0,1,0,0)" fill="#000000" class="wordmark-text-0" data-fill-palette-color="primary" id="text-0"></path></svg></g></svg></g></svg></g></svg></g><g><svg viewBox="0 0 84.38902658944819 85.75013992153607" height="85.75013992153607" width="84.38902658944819"><g><svg xmlns="http://www.w3.org/2000/svg" xmlns:xlink="http://www.w3.org/1999/xlink" version="1.1" x="0" y="0" viewBox="4 3.5 62 63" style="enable-background:new 0 0 70 70;" xml:space="preserve" height="85.75013992153607" width="84.38902658944819" class="icon-icon-0" data-fill-palette-color="accent" id="icon-0"><path d="M10.041 44.479c-0.205 0.681-0.317 1.397-0.317 2.135 0 3.164 1.989 5.888 4.836 7.115v0.725c0 4.614 3.938 8.368 8.778 8.368 0.588 0 1.161-0.073 1.725-0.18C26.161 64.938 28.56 66.5 31.417 66.5c2.43 0 4.431-1.154 5.565-3H41c0.552 0 1-0.448 1-1v-4.533c2.845-0.599 5.601-1.739 8.057-3.336l3.206 3.206c0.188 0.188 0.442 0.293 0.707 0.293s0.52-0.105 0.707-0.293l5.66-5.66c0.391-0.391 0.391-1.023 0-1.414l-3.207-3.206c1.597-2.456 2.738-5.211 3.337-8.057H65c0.552 0 1-0.448 1-1v-8c0-0.552-0.448-1-1-1h-4.533c-0.599-2.845-1.74-5.601-3.337-8.056l3.207-3.207c0.391-0.391 0.391-1.023 0-1.414l-5.66-5.66c-0.375-0.375-1.039-0.375-1.414 0l-3.206 3.207C47.602 12.773 44.846 11.632 42 11.034V6.5c0-0.552-0.448-1-1-1h-4.882c-1.183-1.248-2.841-2-4.733-2-2.49 0-4.672 1.317-5.905 3.287h-1.848c-4.835 0-8.768 3.762-8.768 8.385v0.286c-4.188 0.366-7.486 3.887-7.486 8.168 0 1.802 0.594 3.464 1.586 4.818C6.055 29.92 4 33.073 4 36.32 4 40.009 6.529 43.326 10.041 44.479zM40 7.5v4.36c0 0.487 0.351 0.903 0.831 0.986 3.124 0.538 6.158 1.794 8.774 3.633 0.397 0.279 0.938 0.231 1.282-0.112l3.083-3.083 4.246 4.246-3.083 3.083c-0.344 0.344-0.391 0.884-0.112 1.282 1.839 2.618 3.096 5.652 3.634 8.774C58.737 31.149 59.153 31.5 59.64 31.5H64v6h-4.36c-0.487 0-0.903 0.351-0.985 0.831-0.538 3.123-1.794 6.157-3.634 8.774-0.279 0.397-0.232 0.938 0.112 1.282l3.083 3.083-4.246 4.246-3.083-3.083c-0.343-0.342-0.885-0.391-1.282-0.111-2.618 1.839-5.652 3.095-8.774 3.633C40.351 56.237 40 56.653 40 57.14V61.5h-2.207c0.128-0.55 0.202-1.128 0.202-1.737V49.45C45.802 48.933 52 42.435 52 34.5s-6.198-14.433-14.005-14.95v-9.124c0-1.06-0.21-2.045-0.582-2.926H40zM37.995 47.45V21.55C44.699 22.062 50 27.667 50 34.5S44.699 46.938 37.995 47.45zM10.438 29.994c1.409 1.135 3.197 1.818 5.145 1.818 0.552 0 1-0.448 1-1s-0.448-1-1-1c-3.421 0-6.205-2.775-6.205-6.186 0-3.421 2.784-6.205 6.205-6.205 1.654 0 3.207 0.644 4.374 1.813 0.391 0.391 1.023 0.391 1.414 0.002 0.391-0.391 0.392-1.023 0.002-1.415-1.239-1.241-2.808-2.025-4.509-2.291v-0.358c0-3.521 3.036-6.385 6.768-6.385h0.999c-0.134 0.539-0.213 1.1-0.213 1.68 0 0.315 0.023 0.618 0.058 0.921 0.064 0.548 0.563 0.951 1.108 0.878 0.549-0.063 0.942-0.56 0.878-1.108-0.026-0.227-0.044-0.455-0.044-0.691C26.418 7.729 28.646 5.5 31.385 5.5c2.671 0 4.61 2.072 4.61 4.926v49.337c0 2.789-1.883 4.737-4.578 4.737-2.803 0-4.999-2.063-4.999-4.696 0-0.699 0.153-1.407 0.441-2.047 0.228-0.503 0.004-1.096-0.499-1.322-0.503-0.227-1.095-0.003-1.323 0.499-0.411 0.909-0.619 1.875-0.619 2.87 0 0.314 0.029 0.619 0.071 0.92-0.379 0.06-0.764 0.097-1.151 0.098-3.738 0-6.779-2.857-6.778-6.368v-0.146c0.446 0.072 0.902 0.118 1.369 0.118 1.256 0 2.461-0.264 3.583-0.786 0.501-0.232 0.718-0.827 0.486-1.328-0.233-0.501-0.828-0.719-1.329-0.485-0.856 0.397-1.778 0.599-2.74 0.599-3.421 0-6.205-2.607-6.205-5.812 0-3.02 2.506-5.572 5.705-5.812 0.551-0.041 0.964-0.521 0.922-1.072-0.041-0.551-0.52-0.965-1.072-0.922-2.732 0.205-5.077 1.708-6.401 3.835C8.378 41.887 6 39.474 6 36.32 6 33.601 7.881 30.983 10.438 29.994z" fill="#000000" data-fill-palette-color="accent"></path><path d="M19.487 25.947c0.479 0.082 1.034 0.131 1.635 0.131 3.172 0 7.606-1.39 8.693-6.828 0.108-0.542-0.243-1.068-0.784-1.177-0.544-0.107-1.069 0.243-1.177 0.784-1.234 6.167-7.753 5.165-8.033 5.118-0.542-0.091-1.059 0.275-1.152 0.818C18.577 25.337 18.943 25.854 19.487 25.947z" fill="#000000" data-fill-palette-color="accent"></path><path d="M26.914 44.341c-2.156-1.24-4.37-0.65-4.465-0.624-0.53 0.146-0.839 0.691-0.696 1.222 0.143 0.531 0.692 0.847 1.222 0.707 0.404-0.106 4.013-0.896 5.318 4.05 0.118 0.448 0.523 0.745 0.967 0.745 0.084 0 0.17-0.011 0.256-0.033 0.534-0.141 0.853-0.688 0.711-1.222C29.62 46.886 28.505 45.256 26.914 44.341z" fill="#000000" data-fill-palette-color="accent"></path></svg></g></svg></g></svg></g><defs></defs></svg><rect width="395.52" height="69.25894945915489" fill="none" stroke="none" visibility="hidden"></rect></g></svg></g></svg>